HIERARCHY
ROOT Hips
{
     OFFSET 14.01120 94.93820 -31.48250
     CHANNELS 6 Xposition Yposition Zposition Zrotation Xrotation Yrotation
     JOINT Spine
     {
          OFFSET -0.00000 11.89050 -0.00000
          CHANNELS 3 Zrotation Xrotation Yrotation
          JOINT Spine1
          {
               OFFSET -0.00000 25.65740 0.12766
               CHANNELS 3 Zrotation Xrotation Yrotation
               JOINT HEad
               {
                    OFFSET -0.00000 8.73416 0.01134
                    CHANNELS 3 Zrotation Xrotation Yrotation
                    End Site
                    {
                         OFFSET -0.29000 12.77420 2.51395
                    }
               }
               JOINT LeftShoulder1
               {
                    OFFSET 8.99000 -0.36225 -0.22000
                    CHANNELS 3 Zrotation Xrotation Yrotation
                    JOINT LeftArm
                    {
                         OFFSET 10.28270 -0.00338 0.32212
                         CHANNELS 3 Zrotation Xrotation Yrotation
                         JOINT LeftForeArm
                         {
                              OFFSET 32.76690 0.09914 -1.42434
                              CHANNELS 3 Zrotation Xrotation Yrotation
                              JOINT LeftHand
                              {
                                   OFFSET 27.56430 0.08536 1.02216
                                   CHANNELS 3 Zrotation Xrotation Yrotation
                                   End Site
                                   {
                                        OFFSET 16.74430 -0.60000 1.50291
                                   }
                              }
                         }
                    }
               }
               JOINT RightShoulder
               {
                    OFFSET -8.99000 -0.36225 -0.22000
                    CHANNELS 3 Zrotation Xrotation Yrotation
                    JOINT RightArm
                    {
                         OFFSET -10.28270 -0.00338 0.32212
                         CHANNELS 3 Zrotation Xrotation Yrotation
                         JOINT RightForeArm
                         {
                              OFFSET -32.89710 0.09914 -1.42434
                              CHANNELS 3 Zrotation Xrotation Yrotation
                              JOINT RightHand
                              {
                                   OFFSET -27.49210 0.08536 1.02216
                                   CHANNELS 3 Zrotation Xrotation Yrotation
                                   End Site
                                   {
                                        OFFSET -16.63120 -0.60000 1.50291
                                   }
                              }
                         }
                    }
               }
          }
     }
     JOINT LeftUpLeg
     {
          OFFSET 8.94580 -8.66707 0.10165
          CHANNELS 3 Zrotation Xrotation Yrotation
          JOINT LeftLeg
          {
               OFFSET -0.00000 -44.42270 1.37270
               CHANNELS 3 Zrotation Xrotation Yrotation
               JOINT LeftFoot
               {
                    OFFSET -0.25355 -42.09240 -1.46059
                    CHANNELS 3 Zrotation Xrotation Yrotation
                    JOINT LeftToes
                    {
                         OFFSET -0.04000 -4.41509 8.49910
                         CHANNELS 3 Zrotation Xrotation Yrotation
                         End Site
                         {
                              OFFSET 0.08000 -0.04745 9.77979
                         }
                    }
               }
          }
     }
     JOINT RightUpLeg
     {
          OFFSET -8.94580 -8.66707 0.10165
          CHANNELS 3 Zrotation Xrotation Yrotation
          JOINT RightLeg
          {
               OFFSET 0.00000 -44.42270 1.37270
               CHANNELS 3 Zrotation Xrotation Yrotation
               JOINT RightFoot
               {
                    OFFSET 0.25355 -42.09240 -1.46059
                    CHANNELS 3 Zrotation Xrotation Yrotation
                    JOINT RightToes
                    {
                         OFFSET 0.04000 -4.41509 8.49910
                         CHANNELS 3 Zrotation Xrotation Yrotation
                         End Site
                         {
                              OFFSET -0.08000 -0.13745 9.77979
                         }
                    }
               }
          }
     }
}
MOTION
Frames: 12
Frame Time: 0.01667
14.01120 94.93820 -31.48250 -9.65387 -12.52170 -39.99040 2.04587 11.56410 -1.55811 -0.40643 23.27270 -2.17733 -7.39199 1.86987 13.49480 -0.00000 0.00000 -0.00000 -137.10699 -57.26480 -105.15700 -59.22280 60.77460 -72.32940 12.45810 8.18329 -12.44760 17.12900 1.14331 3.34157 80.34780 -3.45195 67.53450 22.86440 33.75520 95.66670 22.49610 12.42900 8.16889 23.59070 -3.02834 -18.71890 -23.33070 10.66280 66.39510 -12.99580 1.66567 1.03570 8.14869 -6.07967 -46.96000 -21.11470 2.80759 10.60480 37.14590 12.64860 -27.27540 -30.45650 1.83653 2.48018 6.58261 -36.03640 17.96690 
14.32600 94.49220 -30.74380 -10.26360 -12.23490 -41.08090 2.74567 11.67560 -1.74599 -0.23168 23.54600 -2.32624 -7.54733 1.70029 14.07740 -0.00000 0.00000 -0.00000 -137.14400 -57.91280 -105.13200 -59.80560 60.84130 -71.53600 12.36640 8.19171 -12.49700 17.10900 1.15241 3.39287 80.35570 -3.11768 67.50310 22.98900 33.70710 95.62190 22.80500 12.40450 7.88235 23.78650 -3.14027 -18.63710 -22.92060 11.08360 66.64110 -13.59360 1.49824 1.06612 8.49407 -3.67347 -46.30410 -20.94760 1.93125 10.52000 37.40690 14.68970 -27.42340 -30.51870 1.38892 2.36130 7.09632 -37.46050 18.47200 
14.65670 94.12780 -30.02240 -10.76650 -12.01250 -42.11010 3.14103 11.80840 -1.91880 -0.07306 23.83580 -2.53432 -7.74166 1.58670 14.64550 -0.00000 0.00000 -0.00000 -136.88300 -58.45580 -104.91800 -60.12300 60.71030 -71.06800 12.16880 8.22351 -12.47130 17.02980 1.14509 3.37443 80.35970 -2.80329 67.47750 22.98400 33.65580 95.65700 23.03910 12.37590 7.62225 23.89710 -2.97259 -18.62750 -22.81730 11.10590 67.18250 -13.42930 1.87046 1.09411 8.82851 -1.75791 -46.22340 -20.91910 1.26588 10.48060 37.58120 16.28610 -27.40010 -30.74560 1.11995 2.30526 7.55106 -38.83890 18.69250 
14.99070 93.86950 -29.32500 -11.15470 -11.87390 -43.08070 3.18045 11.96600 -2.04503 0.06676 24.14170 -2.76127 -7.94481 1.52038 15.14130 -0.00000 0.00000 -0.00000 -136.34300 -58.81150 -104.49800 -60.07560 60.42930 -71.02990 11.90680 8.26738 -12.41840 16.92800 1.11347 3.23596 80.30240 -2.48527 67.44360 22.83300 33.58300 95.81590 23.21850 12.35160 7.41494 23.94650 -2.47942 -18.60640 -22.94820 10.64870 67.94760 -12.36150 2.68982 1.08747 9.10902 -0.83778 -46.80980 -21.01570 0.82920 10.49610 37.61070 17.41620 -27.22610 -31.15510 1.05825 2.32164 7.96677 -40.24920 18.67010 
15.31240 93.75030 -28.67180 -11.39540 -11.86610 -44.01210 2.75007 12.15950 -2.09185 0.15612 24.47720 -2.98400 -8.12295 1.45482 15.56820 -0.00000 0.00000 -0.00000 -135.83900 -59.00160 -104.11200 -59.80910 60.13090 -71.26140 11.62120 8.30862 -12.42570 16.82730 1.06448 3.00585 80.16050 -2.16720 67.40370 22.62740 33.47940 96.05500 23.40080 12.33950 7.26692 23.94100 -1.61047 -18.48970 -23.24140 9.61538 68.96850 -10.45940 3.83273 1.01122 9.23717 -1.44344 -48.07620 -21.26670 0.63863 10.62290 37.45360 18.01730 -26.94840 -31.75930 1.26183 2.43044 8.37869 -41.75430 18.50750 
15.62030 93.76840 -28.07050 -11.48330 -12.01860 -44.92250 1.81866 12.39140 -2.04860 0.17778 24.84930 -3.20474 -8.27506 1.34892 15.98440 -0.00000 0.00000 -0.00000 -135.70100 -59.09010 -104.01700 -59.63020 59.90830 -71.44650 11.30780 8.34556 -12.52290 16.73370 1.01386 2.76355 79.95330 -1.90293 67.35030 22.50140 33.37430 96.27110 23.59380 12.34540 7.20039 23.89670 -0.43067 -18.33500 -23.71520 8.06413 70.36230 -8.09748 5.10848 0.85522 9.10192 -3.61905 -49.79430 -21.69650 0.66289 10.89730 37.12500 18.12910 -26.62630 -32.49530 1.72049 2.62876 8.81515 -43.32250 18.36050 
15.92060 93.88610 -27.50660 -11.42240 -12.32850 -45.83500 0.40379 12.64370 -1.90805 0.04398 25.23540 -3.42578 -8.43352 1.21211 16.43370 -0.00000 0.00000 -0.00000 -136.12399 -59.13860 -104.35200 -59.84740 59.81910 -71.28680 10.98860 8.38256 -12.63440 16.63400 0.97031 2.55723 79.73230 -1.74803 67.23630 22.52500 33.32290 96.39320 23.74620 12.37000 7.24200 23.83500 0.94814 -18.33030 -24.46380 6.05270 72.17500 -5.66610 6.27581 0.63433 8.69612 -6.75056 -51.64860 -22.32190 0.79882 11.29600 36.68090 17.92820 -26.29270 -33.25600 2.35024 2.88788 9.29670 -44.87560 18.37190 
16.30430 93.73850 -26.78260 -11.72280 -12.22530 -46.79930 0.15562 12.81730 -1.94060 0.13539 25.56520 -3.62338 -8.62888 1.09424 16.91850 -0.00000 0.00000 -0.00000 -137.05701 -59.19190 -105.06100 -60.51600 59.88500 -70.74360 10.75640 8.41491 -12.65850 16.48830 0.93275 2.38958 79.55290 -1.68489 67.01060 22.64730 33.33840 96.46550 23.80910 12.40060 7.35400 24.04780 0.90184 -18.30170 -25.67600 6.81582 74.41790 -4.88574 6.61653 0.55190 8.10986 -10.14070 -53.49750 -22.45970 0.53658 11.49310 36.40480 18.50390 -26.15720 -33.81680 2.61660 3.02372 9.80997 -46.33640 18.54890 
16.69350 93.59160 -26.00020 -11.98730 -12.06170 -47.83580 -0.07289 12.95500 -1.95499 0.21067 25.82560 -3.78051 -8.86694 1.03316 17.44300 -0.00000 0.00000 -0.00000 -138.12399 -59.27780 -105.85400 -61.29180 60.03070 -70.14700 10.69480 8.43031 -12.58780 16.27560 0.90074 2.26204 79.44950 -1.65405 66.68360 22.78160 33.41610 96.57180 23.76000 12.41080 7.42542 24.30440 0.81235 -18.26830 -27.05680 7.56411 76.67060 -4.29437 6.70878 0.48122 7.40722 -13.47950 -55.34080 -22.60950 0.18921 11.70690 36.10560 19.08770 -25.93080 -34.27600 2.87653 3.15026 10.29490 -47.62320 18.77030 
17.08740 93.44990 -25.13960 -12.20810 -11.88220 -48.96670 -0.30625 13.06510 -1.94758 0.24241 26.03490 -3.89099 -9.13613 1.00456 18.03280 -0.00000 0.00000 -0.00000 -138.87300 -59.41560 -106.40900 -61.72510 60.12160 -69.89170 10.79620 8.42121 -12.52130 16.05520 0.87912 2.18915 79.35210 -1.58151 66.30460 22.84400 33.51470 96.77040 23.58940 12.38300 7.37904 24.48020 0.81929 -17.97680 -28.37620 8.30074 78.62170 -3.75488 6.70438 0.41359 6.60206 -16.70830 -57.15460 -22.84080 -0.21031 11.96000 35.80530 19.65170 -25.57440 -34.60260 3.13027 3.26348 10.71330 -48.71250 18.95200 
17.49080 93.32720 -24.21090 -12.38940 -11.74270 -50.16950 -0.60468 13.16350 -1.91533 0.21449 26.22610 -3.97122 -9.43392 0.94069 18.70510 -0.00000 0.00000 -0.00000 -139.13699 -59.61970 -106.61700 -61.69360 60.06440 -70.05180 10.96140 8.39422 -12.55010 15.93160 0.87287 2.17942 79.12030 -1.40939 65.90120 22.76580 33.55840 97.07630 23.31610 12.32760 7.25182 24.50760 0.96684 -17.32550 -29.50750 9.12031 80.04340 -3.24019 6.79577 0.35123 5.70213 -19.80640 -58.82510 -23.21370 -0.57987 12.25140 35.51300 20.10000 -25.09560 -34.80320 3.43039 3.37967 11.08100 -49.65750 19.10260 
17.90620 93.23590 -23.24210 -12.52200 -11.65660 -51.37880 -1.01215 13.24880 -1.86508 0.13768 26.39590 -4.05869 -9.78799 0.81412 19.44900 -0.00000 0.00000 -0.00000 -139.04700 -59.90990 -106.58500 -61.40510 59.84440 -70.41930 11.06700 8.36818 -12.66430 15.95040 0.88370 2.23428 78.70720 -1.14921 65.46510 22.54630 33.50750 97.44890 23.02570 12.27390 7.13806 24.42010 1.16023 -16.36960 -30.47740 10.12790 80.81620 -2.71904 7.20402 0.29280 4.69924 -22.84580 -60.23510 -23.73410 -0.87192 12.52560 35.21230 20.36690 -24.49910 -34.89380 3.79516 3.50558 11.38380 -50.45520 19.19520 
